%
M48
M72
T01C0.0240
T02C0.0276
T03C0.0320
T04C0.0354
T05C0.0400
T06C0.0472
T07C0.0512
T08C0.1300
%
T01
X7432Y2730
T02
X11232Y3230
X12232Y3230
X12232Y6230
X11232Y6230
T03
X9232Y5230
X8732Y5980
X8232Y5230
X6732Y7730
X5732Y7730
X4732Y7730
X3732Y7730
X3732Y10730
X4732Y10730
X5732Y10730
X6732Y10730
T04
X6732Y6230
X6632Y5230
X6732Y4230
X6732Y3230
X3732Y3230
X3732Y4230
X3832Y5230
X3732Y6230
T05
X1732Y6230
X1732Y5230
X1732Y4230
X1732Y7230
X1732Y8230
X1732Y9230
X1732Y10230
X8732Y10230
X9732Y10230
X9732Y9230
X8732Y9230
X8732Y8230
X9732Y8230
X11732Y8730
X11732Y9730
X11732Y10730
T06
X17732Y6699
X18716Y6699
X15763Y4730
X17732Y2762
X18716Y2762
T07
X17732Y4730
X15763Y3746
X15763Y2762
X15763Y5714
X15763Y6699
T08
X1232Y1230
X17732Y1230
X17632Y9730
X17732Y12730
X1232Y12730
M30
