G75*
G70*
%OFA0B0*%
%FSLAX24Y24*%
%IPPOS*%
%LPD*%
%AMOC8*
5,1,8,0,0,1.08239X$1,22.5*
%
%ADD10C,0.0110*%
%ADD11C,0.0080*%
%ADD12C,0.0100*%
%ADD13C,0.0060*%
%ADD14C,0.0020*%
%ADD15C,0.0040*%
%ADD16R,0.0350X0.0500*%
%ADD17C,0.0050*%
%ADD18C,0.0010*%
D10*
X007280Y011588D02*
X007379Y011588D01*
X007477Y011687D01*
X007477Y012179D01*
X007084Y012179D02*
X007084Y011883D01*
X007182Y011785D01*
X007477Y011785D01*
X006833Y011785D02*
X006538Y011785D01*
X006439Y011883D01*
X006439Y012080D01*
X006538Y012179D01*
X006833Y012179D01*
X006833Y012376D02*
X006833Y011785D01*
X006188Y011883D02*
X006188Y012080D01*
X006090Y012179D01*
X005893Y012179D01*
X005795Y012080D01*
X005795Y011883D01*
X005893Y011785D01*
X006090Y011785D01*
X006188Y011883D01*
X005562Y011785D02*
X005365Y011785D01*
X005463Y011785D02*
X005463Y012376D01*
X005365Y012376D01*
X005114Y012080D02*
X005016Y012179D01*
X004819Y012179D01*
X004720Y012080D01*
X004720Y011883D01*
X004819Y011785D01*
X005016Y011785D01*
X005114Y011883D01*
X005114Y012080D01*
X004470Y011785D02*
X004174Y012080D01*
X004076Y011982D02*
X004470Y012376D01*
X004076Y012376D02*
X004076Y011785D01*
X003180Y012376D02*
X002787Y012376D01*
X002984Y012376D02*
X002984Y011785D01*
X002885Y012785D02*
X003082Y012785D01*
X003180Y012883D01*
X003431Y012883D02*
X003431Y013080D01*
X003530Y013179D01*
X003727Y013179D01*
X003825Y013080D01*
X003825Y012982D01*
X003431Y012982D01*
X003431Y012883D02*
X003530Y012785D01*
X003727Y012785D01*
X004076Y012785D02*
X004076Y013179D01*
X004174Y013179D01*
X004273Y013080D01*
X004371Y013179D01*
X004470Y013080D01*
X004470Y012785D01*
X004273Y012785D02*
X004273Y013080D01*
X004720Y013179D02*
X004720Y012883D01*
X004819Y012785D01*
X005114Y012785D01*
X005114Y013179D01*
X006009Y013376D02*
X006009Y012982D01*
X006206Y012785D01*
X006403Y012982D01*
X006403Y013376D01*
X006654Y013277D02*
X006752Y013376D01*
X006949Y013376D01*
X007048Y013277D01*
X006654Y012883D01*
X006752Y012785D01*
X006949Y012785D01*
X007048Y012883D01*
X007048Y013277D01*
X006654Y013277D02*
X006654Y012883D01*
X007299Y012883D02*
X007299Y012785D01*
X007397Y012785D01*
X007397Y012883D01*
X007299Y012883D01*
X007621Y012785D02*
X008014Y012785D01*
X007818Y012785D02*
X007818Y013376D01*
X007621Y013179D01*
X008910Y013080D02*
X009205Y013080D01*
X009303Y012982D01*
X009303Y012883D01*
X009205Y012785D01*
X008910Y012785D01*
X008910Y013376D01*
X009205Y013376D01*
X009303Y013277D01*
X009303Y013179D01*
X009205Y013080D01*
X009554Y013080D02*
X009751Y013080D01*
X009554Y012785D02*
X009948Y012785D01*
X009554Y012785D02*
X009554Y013376D01*
X009948Y013376D01*
X010199Y013376D02*
X010593Y013376D01*
X010396Y013376D02*
X010396Y012785D01*
X010843Y012785D02*
X010843Y013179D01*
X011040Y013376D01*
X011237Y013179D01*
X011237Y012785D01*
X011237Y013080D02*
X010843Y013080D01*
X003180Y013277D02*
X003082Y013376D01*
X002885Y013376D01*
X002787Y013277D01*
X002787Y012883D01*
X002885Y012785D01*
D11*
X003232Y010230D02*
X003232Y008630D01*
X003232Y008830D01*
X003232Y008630D02*
X003232Y008230D01*
X007232Y008230D01*
X007232Y010230D01*
X003232Y010230D01*
X008100Y009980D02*
X008100Y010480D01*
X008232Y010480D02*
X008232Y009980D01*
X008482Y009730D01*
X009982Y009730D01*
X010232Y009480D01*
X010232Y008980D01*
X009982Y008730D01*
X008482Y008730D01*
X008232Y008480D01*
X008232Y007980D01*
X008482Y007730D01*
X009982Y007730D01*
X010232Y007980D01*
X010232Y008480D01*
X009982Y008730D01*
X009982Y009730D02*
X010232Y009980D01*
X010232Y010480D01*
X009982Y010730D01*
X008482Y010730D01*
X008232Y010480D01*
X008272Y011270D02*
X008272Y011690D01*
X008482Y011690D01*
X008552Y011620D01*
X008552Y011480D01*
X008482Y011410D01*
X008272Y011410D01*
X008732Y011270D02*
X009012Y011270D01*
X008872Y011270D02*
X008872Y011690D01*
X008732Y011550D01*
X008482Y009730D02*
X008232Y009480D01*
X008232Y008980D01*
X008482Y008730D01*
X008482Y007190D02*
X008342Y007190D01*
X008272Y007120D01*
X008272Y006840D01*
X008342Y006770D01*
X008482Y006770D01*
X008552Y006840D01*
X008552Y007120D01*
X008482Y007190D01*
X008732Y007050D02*
X008872Y007190D01*
X008872Y006770D01*
X008732Y006770D02*
X009012Y006770D01*
X008552Y006770D02*
X008412Y006910D01*
X006332Y006230D02*
X006232Y006230D01*
X006232Y005930D01*
X004232Y005930D01*
X004232Y006230D01*
X004132Y006230D01*
X004232Y006230D02*
X004232Y006530D01*
X006232Y006530D01*
X006232Y006230D01*
X005932Y005530D02*
X005932Y005230D01*
X006232Y005230D01*
X005932Y005230D02*
X005932Y004930D01*
X004532Y004930D01*
X004532Y005230D01*
X004232Y005230D01*
X004532Y005230D02*
X004532Y005530D01*
X005932Y005530D01*
X004732Y005480D02*
X004732Y004980D01*
X004232Y004530D02*
X006232Y004530D01*
X006232Y004230D01*
X006332Y004230D01*
X006232Y004230D02*
X006232Y003930D01*
X004232Y003930D01*
X004232Y004230D01*
X004132Y004230D01*
X004232Y004230D02*
X004232Y004530D01*
X004232Y003530D02*
X006232Y003530D01*
X006232Y003230D01*
X006332Y003230D01*
X006232Y003230D02*
X006232Y002930D01*
X004232Y002930D01*
X004232Y003230D01*
X004132Y003230D01*
X004232Y003230D02*
X004232Y003530D01*
X007687Y005130D02*
X007845Y005130D01*
X007907Y004580D02*
X009556Y004580D01*
X009619Y005130D02*
X009777Y005130D01*
X008845Y005130D02*
X008619Y005130D01*
X010982Y003730D02*
X011482Y003730D01*
X010452Y003230D02*
X010454Y003301D01*
X010460Y003372D01*
X010470Y003443D01*
X010484Y003512D01*
X010501Y003581D01*
X010523Y003649D01*
X010548Y003716D01*
X010577Y003781D01*
X010609Y003844D01*
X010645Y003906D01*
X010684Y003965D01*
X010727Y004022D01*
X010772Y004077D01*
X010821Y004129D01*
X010872Y004178D01*
X010926Y004224D01*
X010983Y004268D01*
X011041Y004308D01*
X011102Y004344D01*
X011165Y004378D01*
X011230Y004407D01*
X011296Y004433D01*
X011364Y004456D01*
X011432Y004474D01*
X011502Y004489D01*
X011572Y004500D01*
X011643Y004507D01*
X011714Y004510D01*
X011785Y004509D01*
X011856Y004504D01*
X011927Y004495D01*
X011997Y004482D01*
X012066Y004466D01*
X012134Y004445D01*
X012201Y004421D01*
X012267Y004393D01*
X012330Y004361D01*
X012392Y004326D01*
X012452Y004288D01*
X012510Y004246D01*
X012565Y004202D01*
X012618Y004154D01*
X012668Y004103D01*
X012715Y004050D01*
X012759Y003994D01*
X012800Y003936D01*
X012838Y003875D01*
X012872Y003813D01*
X012902Y003748D01*
X012929Y003683D01*
X012953Y003615D01*
X012972Y003547D01*
X012988Y003478D01*
X013000Y003407D01*
X013008Y003337D01*
X013012Y003266D01*
X013012Y003194D01*
X013008Y003123D01*
X013000Y003053D01*
X012988Y002982D01*
X012972Y002913D01*
X012953Y002845D01*
X012929Y002777D01*
X012902Y002712D01*
X012872Y002647D01*
X012838Y002585D01*
X012800Y002524D01*
X012759Y002466D01*
X012715Y002410D01*
X012668Y002357D01*
X012618Y002306D01*
X012565Y002258D01*
X012510Y002214D01*
X012452Y002172D01*
X012392Y002134D01*
X012330Y002099D01*
X012267Y002067D01*
X012201Y002039D01*
X012134Y002015D01*
X012066Y001994D01*
X011997Y001978D01*
X011927Y001965D01*
X011856Y001956D01*
X011785Y001951D01*
X011714Y001950D01*
X011643Y001953D01*
X011572Y001960D01*
X011502Y001971D01*
X011432Y001986D01*
X011364Y002004D01*
X011296Y002027D01*
X011230Y002053D01*
X011165Y002082D01*
X011102Y002116D01*
X011041Y002152D01*
X010983Y002192D01*
X010926Y002236D01*
X010872Y002282D01*
X010821Y002331D01*
X010772Y002383D01*
X010727Y002438D01*
X010684Y002495D01*
X010645Y002554D01*
X010609Y002616D01*
X010577Y002679D01*
X010548Y002744D01*
X010523Y002811D01*
X010501Y002879D01*
X010484Y002948D01*
X010470Y003017D01*
X010460Y003088D01*
X010454Y003159D01*
X010452Y003230D01*
X013272Y003840D02*
X013342Y003770D01*
X013482Y003770D01*
X013552Y003840D01*
X013732Y003770D02*
X014012Y004050D01*
X014012Y004120D01*
X013942Y004190D01*
X013802Y004190D01*
X013732Y004120D01*
X013552Y004120D02*
X013482Y004190D01*
X013342Y004190D01*
X013272Y004120D01*
X013272Y003840D01*
X013732Y003770D02*
X014012Y003770D01*
X014779Y002368D02*
X015173Y002368D01*
X014779Y002368D02*
X014779Y007092D01*
X015173Y007092D01*
X016354Y007092D02*
X019110Y007092D01*
X019110Y002368D01*
X016354Y002368D01*
X010452Y006230D02*
X010454Y006301D01*
X010460Y006372D01*
X010470Y006443D01*
X010484Y006512D01*
X010501Y006581D01*
X010523Y006649D01*
X010548Y006716D01*
X010577Y006781D01*
X010609Y006844D01*
X010645Y006906D01*
X010684Y006965D01*
X010727Y007022D01*
X010772Y007077D01*
X010821Y007129D01*
X010872Y007178D01*
X010926Y007224D01*
X010983Y007268D01*
X011041Y007308D01*
X011102Y007344D01*
X011165Y007378D01*
X011230Y007407D01*
X011296Y007433D01*
X011364Y007456D01*
X011432Y007474D01*
X011502Y007489D01*
X011572Y007500D01*
X011643Y007507D01*
X011714Y007510D01*
X011785Y007509D01*
X011856Y007504D01*
X011927Y007495D01*
X011997Y007482D01*
X012066Y007466D01*
X012134Y007445D01*
X012201Y007421D01*
X012267Y007393D01*
X012330Y007361D01*
X012392Y007326D01*
X012452Y007288D01*
X012510Y007246D01*
X012565Y007202D01*
X012618Y007154D01*
X012668Y007103D01*
X012715Y007050D01*
X012759Y006994D01*
X012800Y006936D01*
X012838Y006875D01*
X012872Y006813D01*
X012902Y006748D01*
X012929Y006683D01*
X012953Y006615D01*
X012972Y006547D01*
X012988Y006478D01*
X013000Y006407D01*
X013008Y006337D01*
X013012Y006266D01*
X013012Y006194D01*
X013008Y006123D01*
X013000Y006053D01*
X012988Y005982D01*
X012972Y005913D01*
X012953Y005845D01*
X012929Y005777D01*
X012902Y005712D01*
X012872Y005647D01*
X012838Y005585D01*
X012800Y005524D01*
X012759Y005466D01*
X012715Y005410D01*
X012668Y005357D01*
X012618Y005306D01*
X012565Y005258D01*
X012510Y005214D01*
X012452Y005172D01*
X012392Y005134D01*
X012330Y005099D01*
X012267Y005067D01*
X012201Y005039D01*
X012134Y005015D01*
X012066Y004994D01*
X011997Y004978D01*
X011927Y004965D01*
X011856Y004956D01*
X011785Y004951D01*
X011714Y004950D01*
X011643Y004953D01*
X011572Y004960D01*
X011502Y004971D01*
X011432Y004986D01*
X011364Y005004D01*
X011296Y005027D01*
X011230Y005053D01*
X011165Y005082D01*
X011102Y005116D01*
X011041Y005152D01*
X010983Y005192D01*
X010926Y005236D01*
X010872Y005282D01*
X010821Y005331D01*
X010772Y005383D01*
X010727Y005438D01*
X010684Y005495D01*
X010645Y005554D01*
X010609Y005616D01*
X010577Y005679D01*
X010548Y005744D01*
X010523Y005811D01*
X010501Y005879D01*
X010484Y005948D01*
X010470Y006017D01*
X010460Y006088D01*
X010454Y006159D01*
X010452Y006230D01*
X010982Y006730D02*
X011482Y006730D01*
X013272Y006840D02*
X013342Y006770D01*
X013482Y006770D01*
X013552Y006840D01*
X013482Y006770D01*
X013342Y006770D01*
X013272Y006840D01*
X013272Y007120D01*
X013342Y007190D01*
X013482Y007190D01*
X013552Y007120D01*
X013482Y007190D01*
X013342Y007190D01*
X013272Y007120D01*
X013272Y006840D01*
X013732Y006770D02*
X014012Y006770D01*
X013732Y006770D01*
X013872Y006770D02*
X013872Y007190D01*
X013732Y007050D01*
X013872Y007190D01*
X013872Y006770D01*
D12*
X019232Y000230D02*
X000232Y000230D01*
X000232Y013730D01*
X019232Y013730D01*
X019232Y000230D01*
X003449Y008730D02*
X003451Y008763D01*
X003457Y008796D01*
X003467Y008829D01*
X003480Y008859D01*
X003497Y008888D01*
X003518Y008915D01*
X003541Y008939D01*
X003567Y008960D01*
X003595Y008978D01*
X003626Y008992D01*
X003657Y009003D01*
X003690Y009010D01*
X003724Y009013D01*
X003757Y009012D01*
X003790Y009007D01*
X003823Y008998D01*
X003854Y008985D01*
X003883Y008969D01*
X003910Y008950D01*
X003935Y008927D01*
X003957Y008902D01*
X003976Y008874D01*
X003991Y008844D01*
X004003Y008813D01*
X004011Y008780D01*
X004015Y008747D01*
X004015Y008713D01*
X004011Y008680D01*
X004003Y008647D01*
X003991Y008616D01*
X003976Y008586D01*
X003957Y008558D01*
X003935Y008533D01*
X003910Y008510D01*
X003883Y008491D01*
X003854Y008475D01*
X003823Y008462D01*
X003790Y008453D01*
X003757Y008448D01*
X003724Y008447D01*
X003690Y008450D01*
X003657Y008457D01*
X003626Y008468D01*
X003595Y008482D01*
X003567Y008500D01*
X003541Y008521D01*
X003518Y008545D01*
X003497Y008572D01*
X003480Y008601D01*
X003467Y008631D01*
X003457Y008664D01*
X003451Y008697D01*
X003449Y008730D01*
D13*
X012732Y007680D02*
X017632Y007680D01*
X017632Y008030D01*
X018232Y008030D01*
X018232Y007680D01*
X018982Y007680D01*
X018982Y011780D01*
X018232Y011780D01*
X018232Y011430D01*
X017632Y011430D01*
X017632Y011780D01*
X012732Y011780D01*
X012732Y007680D01*
X016922Y009730D02*
X016924Y009783D01*
X016930Y009836D01*
X016940Y009888D01*
X016954Y009939D01*
X016971Y009989D01*
X016992Y010038D01*
X017017Y010085D01*
X017045Y010130D01*
X017077Y010173D01*
X017112Y010213D01*
X017149Y010250D01*
X017189Y010285D01*
X017232Y010317D01*
X017277Y010345D01*
X017324Y010370D01*
X017373Y010391D01*
X017423Y010408D01*
X017474Y010422D01*
X017526Y010432D01*
X017579Y010438D01*
X017632Y010440D01*
X017685Y010438D01*
X017738Y010432D01*
X017790Y010422D01*
X017841Y010408D01*
X017891Y010391D01*
X017940Y010370D01*
X017987Y010345D01*
X018032Y010317D01*
X018075Y010285D01*
X018115Y010250D01*
X018152Y010213D01*
X018187Y010173D01*
X018219Y010130D01*
X018247Y010085D01*
X018272Y010038D01*
X018293Y009989D01*
X018310Y009939D01*
X018324Y009888D01*
X018334Y009836D01*
X018340Y009783D01*
X018342Y009730D01*
X018340Y009677D01*
X018334Y009624D01*
X018324Y009572D01*
X018310Y009521D01*
X018293Y009471D01*
X018272Y009422D01*
X018247Y009375D01*
X018219Y009330D01*
X018187Y009287D01*
X018152Y009247D01*
X018115Y009210D01*
X018075Y009175D01*
X018032Y009143D01*
X017987Y009115D01*
X017940Y009090D01*
X017891Y009069D01*
X017841Y009052D01*
X017790Y009038D01*
X017738Y009028D01*
X017685Y009022D01*
X017632Y009020D01*
X017579Y009022D01*
X017526Y009028D01*
X017474Y009038D01*
X017423Y009052D01*
X017373Y009069D01*
X017324Y009090D01*
X017277Y009115D01*
X017232Y009143D01*
X017189Y009175D01*
X017149Y009210D01*
X017112Y009247D01*
X017077Y009287D01*
X017045Y009330D01*
X017017Y009375D01*
X016992Y009422D01*
X016971Y009471D01*
X016954Y009521D01*
X016940Y009572D01*
X016930Y009624D01*
X016924Y009677D01*
X016922Y009730D01*
D14*
X016232Y007930D02*
X016232Y011530D01*
X012982Y011530D01*
X012982Y007930D01*
X016232Y007930D01*
D15*
X016468Y009106D02*
X016352Y009223D01*
X016468Y009340D01*
X016702Y009340D01*
X016702Y009465D02*
X016702Y009699D01*
X016702Y009582D02*
X016352Y009582D01*
X016468Y009465D01*
X016527Y009340D02*
X016527Y009106D01*
X016468Y009106D02*
X016702Y009106D01*
X016643Y009824D02*
X016702Y009883D01*
X016702Y009999D01*
X016643Y010058D01*
X016527Y010058D01*
X016468Y009999D01*
X016468Y009941D01*
X016527Y009824D01*
X016352Y009824D01*
X016352Y010058D01*
X016643Y010242D02*
X016702Y010242D01*
X016702Y010300D01*
X016643Y010300D01*
X016643Y010242D01*
X016702Y010300D02*
X016819Y010183D01*
X016702Y010423D02*
X016468Y010656D01*
X016410Y010656D01*
X016352Y010598D01*
X016352Y010481D01*
X016410Y010423D01*
X016702Y010423D02*
X016702Y010656D01*
X016702Y010782D02*
X016468Y010782D01*
X016468Y010840D01*
X016527Y010899D01*
X016468Y010957D01*
X016527Y011015D01*
X016702Y011015D01*
X016702Y010899D02*
X016527Y010899D01*
X016468Y011141D02*
X016468Y011199D01*
X016527Y011258D01*
X016468Y011316D01*
X016527Y011374D01*
X016702Y011374D01*
X016702Y011258D02*
X016527Y011258D01*
X016468Y011141D02*
X016702Y011141D01*
D16*
X012557Y010730D03*
X012557Y009730D03*
X012557Y008730D03*
D17*
X005942Y006405D02*
X005762Y006225D01*
X005807Y006270D02*
X005942Y006135D01*
X005762Y006135D02*
X005762Y006405D01*
X005558Y006405D02*
X005558Y006135D01*
X005468Y006135D02*
X005648Y006135D01*
X005468Y006315D02*
X005558Y006405D01*
X005513Y004405D02*
X005603Y004405D01*
X005648Y004360D01*
X005468Y004180D01*
X005513Y004135D01*
X005603Y004135D01*
X005648Y004180D01*
X005648Y004360D01*
X005762Y004405D02*
X005762Y004135D01*
X005762Y004225D02*
X005942Y004405D01*
X005807Y004270D02*
X005942Y004135D01*
X005468Y004180D02*
X005468Y004360D01*
X005513Y004405D01*
X005263Y004405D02*
X005173Y004315D01*
X005263Y004405D02*
X005263Y004135D01*
X005173Y004135D02*
X005353Y004135D01*
X005263Y003405D02*
X005263Y003135D01*
X005173Y003135D02*
X005353Y003135D01*
X005468Y003180D02*
X005648Y003360D01*
X005648Y003180D01*
X005603Y003135D01*
X005513Y003135D01*
X005468Y003180D01*
X005468Y003360D01*
X005513Y003405D01*
X005603Y003405D01*
X005648Y003360D01*
X005762Y003405D02*
X005762Y003135D01*
X005762Y003225D02*
X005942Y003405D01*
X005807Y003270D02*
X005942Y003135D01*
X005263Y003405D02*
X005173Y003315D01*
X002732Y003730D02*
X002732Y004230D01*
X002232Y004230D01*
X002232Y006230D01*
X002732Y006230D01*
X002732Y004230D01*
X002732Y003730D02*
X000532Y003730D01*
X000532Y006730D01*
X000532Y010730D01*
X002732Y010730D01*
X002732Y010230D01*
X002232Y010230D01*
X002232Y007230D01*
X002732Y007230D01*
X002732Y006730D01*
X000532Y006730D01*
X002732Y006730D01*
X002732Y006230D01*
X002732Y007230D02*
X002732Y010230D01*
D18*
X004687Y005185D02*
X004762Y005185D01*
X004787Y005160D01*
X004787Y005060D01*
X004762Y005035D01*
X004687Y005035D01*
X004687Y005185D01*
X004834Y005185D02*
X004884Y005185D01*
X004859Y005185D02*
X004859Y005035D01*
X004834Y005035D02*
X004884Y005035D01*
X004932Y005060D02*
X004957Y005035D01*
X005007Y005035D01*
X005032Y005060D01*
X005032Y005160D01*
X005007Y005185D01*
X004957Y005185D01*
X004932Y005160D01*
X004932Y005060D01*
X005080Y005035D02*
X005155Y005035D01*
X005180Y005060D01*
X005180Y005160D01*
X005155Y005185D01*
X005080Y005185D01*
X005080Y005035D01*
X005227Y005035D02*
X005227Y005185D01*
X005327Y005185D01*
X005374Y005110D02*
X005474Y005110D01*
X005522Y005060D02*
X005522Y005035D01*
X005622Y005035D01*
X005669Y005035D02*
X005769Y005035D01*
X005816Y005035D02*
X005816Y005185D01*
X005916Y005035D01*
X005916Y005185D01*
X005964Y005185D02*
X005964Y005035D01*
X006064Y005035D01*
X006111Y005035D02*
X006111Y005185D01*
X006186Y005185D01*
X006211Y005160D01*
X006211Y005110D01*
X006186Y005085D01*
X006111Y005085D01*
X006161Y005085D02*
X006211Y005035D01*
X006258Y005035D02*
X006258Y005185D01*
X006333Y005185D01*
X006358Y005160D01*
X006358Y005110D01*
X006333Y005085D01*
X006258Y005085D01*
X006406Y005185D02*
X006506Y005185D01*
X006553Y005185D02*
X006553Y005035D01*
X006553Y005110D02*
X006653Y005110D01*
X006653Y005185D02*
X006653Y005035D01*
X006456Y005035D02*
X006456Y005185D01*
X006064Y005185D02*
X005964Y005185D01*
X005964Y005110D02*
X006014Y005110D01*
X005769Y005185D02*
X005669Y005185D01*
X005669Y005035D01*
X005669Y005110D02*
X005719Y005110D01*
X005622Y005160D02*
X005522Y005060D01*
X005522Y005185D02*
X005622Y005185D01*
X005622Y005160D01*
X005327Y005035D02*
X005227Y005035D01*
X005227Y005110D02*
X005277Y005110D01*
X009587Y004563D02*
X009532Y004606D01*
X009568Y004655D01*
X009602Y004706D01*
X009631Y004760D01*
X009658Y004815D01*
X009682Y004871D01*
X009701Y004929D01*
X009718Y004988D01*
X009731Y005048D01*
X009740Y005108D01*
X009745Y005169D01*
X009747Y005231D01*
X009745Y005292D01*
X009740Y005353D01*
X009730Y005413D01*
X009717Y005473D01*
X009701Y005532D01*
X009681Y005590D01*
X009658Y005646D01*
X009631Y005701D01*
X009601Y005755D01*
X009568Y005806D01*
X009532Y005855D01*
X009492Y005902D01*
X009451Y005947D01*
X009406Y005989D01*
X009359Y006028D01*
X009310Y006064D01*
X009259Y006098D01*
X009205Y006128D01*
X009150Y006155D01*
X009094Y006178D01*
X009036Y006198D01*
X009056Y006265D01*
X009057Y006265D01*
X009118Y006244D01*
X009179Y006219D01*
X009238Y006190D01*
X009295Y006158D01*
X009349Y006122D01*
X009402Y006083D01*
X009452Y006041D01*
X009500Y005996D01*
X009545Y005949D01*
X009587Y005899D01*
X009625Y005846D01*
X009661Y005791D01*
X009693Y005734D01*
X009722Y005675D01*
X009747Y005615D01*
X009768Y005553D01*
X009785Y005490D01*
X009799Y005426D01*
X009809Y005361D01*
X009815Y005296D01*
X009817Y005230D01*
X009815Y005165D01*
X009809Y005100D01*
X009799Y005035D01*
X009786Y004971D01*
X009768Y004908D01*
X009747Y004846D01*
X009722Y004786D01*
X009693Y004727D01*
X009661Y004670D01*
X009626Y004615D01*
X009587Y004562D01*
X009580Y004568D01*
X009618Y004620D01*
X009654Y004675D01*
X009685Y004731D01*
X009714Y004790D01*
X009739Y004850D01*
X009760Y004911D01*
X009777Y004973D01*
X009791Y005037D01*
X009800Y005101D01*
X009806Y005166D01*
X009808Y005230D01*
X009806Y005295D01*
X009800Y005360D01*
X009790Y005424D01*
X009777Y005488D01*
X009759Y005550D01*
X009738Y005611D01*
X009713Y005671D01*
X009685Y005730D01*
X009653Y005786D01*
X009618Y005841D01*
X009580Y005893D01*
X009538Y005943D01*
X009494Y005990D01*
X009446Y006035D01*
X009397Y006076D01*
X009344Y006115D01*
X009290Y006150D01*
X009233Y006182D01*
X009175Y006210D01*
X009115Y006235D01*
X009054Y006257D01*
X009051Y006248D01*
X009112Y006227D01*
X009172Y006202D01*
X009229Y006174D01*
X009285Y006142D01*
X009339Y006107D01*
X009391Y006069D01*
X009440Y006028D01*
X009487Y005984D01*
X009531Y005937D01*
X009572Y005887D01*
X009611Y005836D01*
X009645Y005782D01*
X009677Y005725D01*
X009705Y005668D01*
X009730Y005608D01*
X009751Y005547D01*
X009768Y005485D01*
X009781Y005422D01*
X009791Y005359D01*
X009797Y005295D01*
X009799Y005231D01*
X009797Y005166D01*
X009791Y005102D01*
X009782Y005039D01*
X009768Y004976D01*
X009751Y004914D01*
X009730Y004853D01*
X009706Y004793D01*
X009677Y004735D01*
X009646Y004679D01*
X009611Y004625D01*
X009573Y004573D01*
X009566Y004579D01*
X009604Y004630D01*
X009638Y004684D01*
X009670Y004740D01*
X009697Y004797D01*
X009722Y004856D01*
X009742Y004916D01*
X009759Y004978D01*
X009773Y005040D01*
X009782Y005103D01*
X009788Y005167D01*
X009790Y005231D01*
X009788Y005294D01*
X009782Y005358D01*
X009773Y005421D01*
X009759Y005483D01*
X009742Y005545D01*
X009721Y005605D01*
X009697Y005664D01*
X009669Y005721D01*
X009638Y005777D01*
X009603Y005830D01*
X009565Y005882D01*
X009525Y005931D01*
X009481Y005977D01*
X009434Y006021D01*
X009386Y006062D01*
X009334Y006100D01*
X009281Y006135D01*
X009225Y006166D01*
X009168Y006194D01*
X009109Y006219D01*
X009049Y006239D01*
X009046Y006231D01*
X009106Y006210D01*
X009164Y006186D01*
X009221Y006158D01*
X009276Y006127D01*
X009329Y006092D01*
X009380Y006055D01*
X009429Y006014D01*
X009475Y005971D01*
X009518Y005925D01*
X009558Y005876D01*
X009596Y005825D01*
X009630Y005772D01*
X009661Y005717D01*
X009689Y005660D01*
X009713Y005602D01*
X009734Y005542D01*
X009751Y005481D01*
X009764Y005419D01*
X009773Y005357D01*
X009779Y005294D01*
X009781Y005231D01*
X009779Y005167D01*
X009773Y005104D01*
X009764Y005042D01*
X009751Y004980D01*
X009734Y004919D01*
X009713Y004859D01*
X009689Y004801D01*
X009662Y004744D01*
X009631Y004689D01*
X009596Y004636D01*
X009559Y004585D01*
X009552Y004590D01*
X009589Y004641D01*
X009623Y004693D01*
X009654Y004748D01*
X009681Y004804D01*
X009705Y004862D01*
X009725Y004922D01*
X009742Y004982D01*
X009755Y005043D01*
X009765Y005105D01*
X009770Y005168D01*
X009772Y005231D01*
X009770Y005293D01*
X009764Y005356D01*
X009755Y005418D01*
X009742Y005479D01*
X009725Y005539D01*
X009704Y005599D01*
X009681Y005657D01*
X009653Y005713D01*
X009622Y005768D01*
X009588Y005820D01*
X009551Y005871D01*
X009511Y005919D01*
X009468Y005965D01*
X009423Y006008D01*
X009374Y006048D01*
X009324Y006085D01*
X009271Y006119D01*
X009217Y006150D01*
X009161Y006178D01*
X009103Y006202D01*
X009043Y006222D01*
X009041Y006214D01*
X009099Y006193D01*
X009157Y006169D01*
X009213Y006142D01*
X009267Y006111D01*
X009319Y006078D01*
X009369Y006041D01*
X009417Y006001D01*
X009462Y005958D01*
X009504Y005913D01*
X009544Y005865D01*
X009581Y005815D01*
X009615Y005763D01*
X009645Y005709D01*
X009672Y005653D01*
X009696Y005595D01*
X009716Y005537D01*
X009733Y005477D01*
X009746Y005416D01*
X009755Y005355D01*
X009761Y005293D01*
X009763Y005231D01*
X009761Y005168D01*
X009756Y005107D01*
X009746Y005045D01*
X009733Y004984D01*
X009717Y004924D01*
X009696Y004866D01*
X009673Y004808D01*
X009646Y004752D01*
X009615Y004698D01*
X009582Y004646D01*
X009545Y004596D01*
X009538Y004601D01*
X009574Y004651D01*
X009607Y004703D01*
X009638Y004756D01*
X009665Y004812D01*
X009688Y004869D01*
X009708Y004927D01*
X009725Y004986D01*
X009737Y005047D01*
X009747Y005108D01*
X009752Y005169D01*
X009754Y005231D01*
X009752Y005292D01*
X009747Y005353D01*
X009737Y005414D01*
X009724Y005475D01*
X009708Y005534D01*
X009688Y005592D01*
X009664Y005649D01*
X009637Y005705D01*
X009607Y005758D01*
X009574Y005810D01*
X009537Y005860D01*
X009498Y005907D01*
X009455Y005952D01*
X009411Y005994D01*
X009363Y006034D01*
X009314Y006070D01*
X009262Y006104D01*
X009209Y006134D01*
X009153Y006161D01*
X009096Y006185D01*
X009038Y006205D01*
X008408Y006265D02*
X008428Y006198D01*
X008370Y006178D01*
X008314Y006155D01*
X008259Y006128D01*
X008206Y006098D01*
X008154Y006064D01*
X008105Y006028D01*
X008058Y005989D01*
X008014Y005947D01*
X007972Y005902D01*
X007932Y005855D01*
X007896Y005806D01*
X007863Y005755D01*
X007833Y005701D01*
X007806Y005646D01*
X007783Y005590D01*
X007763Y005532D01*
X007747Y005473D01*
X007734Y005413D01*
X007724Y005353D01*
X007719Y005292D01*
X007717Y005231D01*
X007719Y005169D01*
X007724Y005108D01*
X007733Y005048D01*
X007746Y004988D01*
X007763Y004929D01*
X007782Y004871D01*
X007806Y004815D01*
X007833Y004760D01*
X007862Y004706D01*
X007896Y004655D01*
X007932Y004606D01*
X007877Y004563D01*
X007877Y004562D01*
X007838Y004615D01*
X007803Y004670D01*
X007771Y004727D01*
X007742Y004786D01*
X007717Y004846D01*
X007696Y004908D01*
X007678Y004971D01*
X007665Y005035D01*
X007655Y005100D01*
X007649Y005165D01*
X007647Y005231D01*
X007649Y005296D01*
X007655Y005361D01*
X007665Y005426D01*
X007679Y005490D01*
X007696Y005553D01*
X007717Y005615D01*
X007742Y005675D01*
X007771Y005734D01*
X007803Y005791D01*
X007839Y005846D01*
X007877Y005899D01*
X007919Y005949D01*
X007964Y005996D01*
X008012Y006041D01*
X008062Y006083D01*
X008115Y006122D01*
X008169Y006158D01*
X008226Y006190D01*
X008285Y006219D01*
X008346Y006244D01*
X008407Y006265D01*
X008410Y006257D01*
X008349Y006235D01*
X008289Y006210D01*
X008231Y006182D01*
X008174Y006150D01*
X008120Y006115D01*
X008067Y006076D01*
X008018Y006035D01*
X007970Y005990D01*
X007926Y005943D01*
X007885Y005893D01*
X007846Y005841D01*
X007811Y005786D01*
X007779Y005730D01*
X007751Y005671D01*
X007726Y005611D01*
X007705Y005550D01*
X007687Y005488D01*
X007674Y005424D01*
X007664Y005360D01*
X007658Y005295D01*
X007656Y005231D01*
X007658Y005166D01*
X007664Y005101D01*
X007673Y005037D01*
X007687Y004973D01*
X007704Y004911D01*
X007725Y004850D01*
X007750Y004790D01*
X007779Y004731D01*
X007810Y004675D01*
X007845Y004620D01*
X007884Y004568D01*
X007891Y004573D01*
X007853Y004625D01*
X007818Y004679D01*
X007787Y004735D01*
X007758Y004793D01*
X007734Y004853D01*
X007713Y004914D01*
X007696Y004976D01*
X007682Y005039D01*
X007673Y005102D01*
X007667Y005166D01*
X007665Y005231D01*
X007667Y005295D01*
X007673Y005359D01*
X007683Y005422D01*
X007696Y005485D01*
X007713Y005547D01*
X007734Y005608D01*
X007759Y005668D01*
X007787Y005725D01*
X007819Y005782D01*
X007853Y005836D01*
X007892Y005887D01*
X007933Y005937D01*
X007977Y005984D01*
X008024Y006028D01*
X008073Y006069D01*
X008125Y006107D01*
X008179Y006142D01*
X008235Y006174D01*
X008292Y006202D01*
X008352Y006227D01*
X008413Y006248D01*
X008415Y006239D01*
X008355Y006219D01*
X008296Y006194D01*
X008239Y006166D01*
X008183Y006135D01*
X008130Y006100D01*
X008078Y006062D01*
X008030Y006021D01*
X007983Y005977D01*
X007939Y005931D01*
X007899Y005882D01*
X007861Y005830D01*
X007826Y005777D01*
X007795Y005721D01*
X007767Y005664D01*
X007743Y005605D01*
X007722Y005545D01*
X007705Y005483D01*
X007691Y005421D01*
X007682Y005358D01*
X007676Y005294D01*
X007674Y005231D01*
X007676Y005167D01*
X007682Y005103D01*
X007691Y005040D01*
X007704Y004978D01*
X007722Y004916D01*
X007742Y004856D01*
X007767Y004797D01*
X007794Y004740D01*
X007826Y004684D01*
X007860Y004630D01*
X007898Y004579D01*
X007905Y004585D01*
X007868Y004636D01*
X007833Y004689D01*
X007802Y004744D01*
X007775Y004801D01*
X007751Y004859D01*
X007730Y004919D01*
X007713Y004980D01*
X007700Y005042D01*
X007691Y005104D01*
X007685Y005167D01*
X007683Y005231D01*
X007685Y005294D01*
X007691Y005357D01*
X007700Y005419D01*
X007713Y005481D01*
X007730Y005542D01*
X007751Y005602D01*
X007775Y005660D01*
X007803Y005717D01*
X007834Y005772D01*
X007868Y005825D01*
X007906Y005876D01*
X007946Y005925D01*
X007989Y005971D01*
X008035Y006014D01*
X008084Y006055D01*
X008135Y006092D01*
X008188Y006127D01*
X008243Y006158D01*
X008300Y006186D01*
X008358Y006210D01*
X008418Y006231D01*
X008421Y006222D01*
X008361Y006202D01*
X008304Y006178D01*
X008247Y006150D01*
X008193Y006119D01*
X008140Y006085D01*
X008090Y006048D01*
X008041Y006008D01*
X007996Y005965D01*
X007953Y005919D01*
X007913Y005871D01*
X007876Y005820D01*
X007842Y005768D01*
X007811Y005713D01*
X007783Y005657D01*
X007760Y005599D01*
X007739Y005539D01*
X007722Y005479D01*
X007709Y005418D01*
X007700Y005356D01*
X007694Y005293D01*
X007692Y005231D01*
X007694Y005168D01*
X007699Y005105D01*
X007709Y005043D01*
X007722Y004982D01*
X007739Y004922D01*
X007759Y004862D01*
X007783Y004804D01*
X007810Y004748D01*
X007841Y004693D01*
X007875Y004641D01*
X007912Y004590D01*
X007919Y004596D01*
X007882Y004646D01*
X007849Y004698D01*
X007818Y004752D01*
X007791Y004808D01*
X007768Y004866D01*
X007747Y004924D01*
X007731Y004984D01*
X007718Y005045D01*
X007708Y005107D01*
X007703Y005168D01*
X007701Y005231D01*
X007703Y005293D01*
X007709Y005355D01*
X007718Y005416D01*
X007731Y005477D01*
X007748Y005537D01*
X007768Y005595D01*
X007792Y005653D01*
X007819Y005709D01*
X007849Y005763D01*
X007883Y005815D01*
X007920Y005865D01*
X007960Y005913D01*
X008002Y005958D01*
X008047Y006001D01*
X008095Y006041D01*
X008145Y006078D01*
X008197Y006111D01*
X008251Y006142D01*
X008307Y006169D01*
X008365Y006193D01*
X008423Y006214D01*
X008426Y006205D01*
X008368Y006185D01*
X008311Y006161D01*
X008256Y006134D01*
X008202Y006104D01*
X008150Y006070D01*
X008101Y006034D01*
X008053Y005994D01*
X008009Y005952D01*
X007966Y005907D01*
X007927Y005860D01*
X007891Y005810D01*
X007857Y005758D01*
X007827Y005705D01*
X007800Y005649D01*
X007776Y005592D01*
X007756Y005534D01*
X007740Y005475D01*
X007727Y005414D01*
X007717Y005354D01*
X007712Y005292D01*
X007710Y005231D01*
X007712Y005169D01*
X007717Y005108D01*
X007727Y005047D01*
X007739Y004986D01*
X007756Y004927D01*
X007776Y004869D01*
X007799Y004812D01*
X007826Y004756D01*
X007856Y004703D01*
X007890Y004651D01*
X007926Y004601D01*
M02*
